<svg id="Capa_1" data-name="Capa 1" xmlns="http://www.w3.org/2000/svg" viewBox="0 0 1302.8 488"><defs><style>.cls-1,.cls-2{fill:#fff;}.cls-1{stroke:#fff;stroke-miterlimit:10;stroke-width:0;}</style></defs><title>isologo blanco</title><path class="cls-1" d="M-136.14,958.44a5.94,5.94,0,0,1-2.59.88q-16.77.3-52.06,0c-2.54,0-4.23-5.68-4.5-6.85" transform="translate(373.04 -852.9)"/><line class="cls-1" x1="230" y1="378.54" x2="161.74" y2="378.44"/><path class="cls-1" d="M-233,1194.86A34.69,34.69,0,0,1-217,1211.92a.69.69,0,0,0,.68.44l42.23-.15" transform="translate(373.04 -852.9)"/><path class="cls-1" d="M-196.78,1190.25c-2.09-.39-4.19-.79-6.32-1.21-16.49-3.29-26-20.67-20.91-36.27q5.76-17.79,26.47-20.16" transform="translate(373.04 -852.9)"/><path class="cls-1" d="M-166,1126.11a302.69,302.69,0,0,0-31.27-.89q-21.79.72-35.85.28c-1.39,0-1.43,0-.14.14a2.4,2.4,0,0,0,.46,0c.36,0,.54.13.54.49a1.09,1.09,0,0,1-.3.76" transform="translate(373.04 -852.9)"/><line class="cls-1" x1="140.49" y1="253.89" x2="175.5" y2="253.71"/><path class="cls-1" d="M-197.25,1075.15l-19.11-.15a.78.78,0,0,0-.78.48c-3.68,7.72-7.25,12.4-15,16.12a2.33,2.33,0,0,0-.74.8" transform="translate(373.04 -852.9)"/><path class="cls-1" d="M-232.79,1038.86c7.7,5.09,11.69,8.27,15.63,16.83a.92.92,0,0,0,.83.53l18.26,0a.58.58,0,0,0,.52-.29l.3-.48" transform="translate(373.04 -852.9)"/><path class="cls-1" d="M-232.5,1004.65c1.6,1.05,2.94.48,4.42.54a282.35,282.35,0,0,0,30.79-.33" transform="translate(373.04 -852.9)"/><path class="cls-1" d="M-172.75,979.65a2.33,2.33,0,0,0-.08-1,.56.56,0,0,0-.59-.44l-18,.24a.58.58,0,0,0-.56.36q-12.34,25.55-40.58,16.28" transform="translate(373.04 -852.9)"/><path class="cls-2" d="M-21.73,852.9h5q3.83,1.73,6.13,3.06Q52.64,892.48,116,928.85a31.14,31.14,0,0,1,4.14,2.85c.37.31.32.49-.16.56a40.92,40.92,0,0,1-5.51.42q-25.51-.16-51,.16c-2.53,0-5.16-.2-7.64-.4-4.25-.35-7.2-2.38-10.74-4.43q-29.29-16.93-58.79-33.58-5.77-3.25-12.29.5-55.05,31.77-110.12,63.51a5.94,5.94,0,0,1-2.59.88q-16.77.3-52.06,0c-2.54,0-4.23-5.68-4.5-6.85L-21.73,852.9Z" transform="translate(373.04 -852.9)"/><path class="cls-2" d="M-143,1231.44l-68.26-.1-4.39-.2a.75.75,0,0,0-.77.47c-3.23,7-7.82,12.7-14.78,16.14-20.92,10.32-44.57-6.79-41.23-30.39,2.78-19.6,21.34-28.75,39.43-22.5A34.69,34.69,0,0,1-217,1211.92a.69.69,0,0,0,.68.44l42.23-.15c18-.48,38.07.32,69.16-.14.47,0,.51-.14.12-.4-17-11.38-36-19.62-52.61-31.45-3.1-2.21-4.28-4.8-5.17-8.29a1,1,0,0,0-.61-.71c-2.91-1.25-5.16-.68-6.9,2.18-6.32,10.36-14,17.11-26.7,16.85-2.09-.39-4.19-.79-6.32-1.21-16.49-3.29-26-20.67-20.91-36.27q5.76-17.79,26.47-20.16,19.66-.08,27.38,17.64a.87.87,0,0,0,.84.56l6.24.13a1.25,1.25,0,0,0,1.27-1.25l0-22.28a.72.72,0,0,0-.68-.79l-3.5-.51a302.69,302.69,0,0,0-31.27-.89q-21.79.72-35.85.28c-1.39,0-1.43,0-.14.14a2.4,2.4,0,0,0,.46,0c.36,0,.54.13.54.49a1.09,1.09,0,0,1-.3.76l-52.07-.37a2,2,0,0,0-1.77,1.06c-15.47,29.22-56.59,19.05-55-14.13a24.57,24.57,0,0,1,5.09-14.34c14.25-18.78,41.73-15.2,50.44,6.72a1.64,1.64,0,0,0,1.52,1l51.8-.08,35-.18,35.12.18a.38.38,0,0,0,.39-.38c.23-10.12.91-20.85-.35-30.9a.55.55,0,0,0-.61-.53l-34.26.17-19.11-.15a.78.78,0,0,0-.78.48c-3.68,7.72-7.25,12.4-15,16.12a2.33,2.33,0,0,0-.74.8l-2.95.72a2.2,2.2,0,0,0-.83.4c-3.46,2.64-13,.62-16.65-.55-25.69-8.25-26.51-47.18.17-54.59a2.13,2.13,0,0,0,.86-.47c1.63-1.45,16-1.72,16.59.22a.73.73,0,0,0,.67.53l2.18.2c7.7,5.09,11.69,8.27,15.63,16.83a.92.92,0,0,0,.83.53l18.26,0a.58.58,0,0,0,.52-.29l.3-.48,34.41-.17a1,1,0,0,0,1-1l.07-28.27a1.05,1.05,0,0,0-1.06-1.06l-34.37,0q-16.69-1.15-33.47-.81a4.25,4.25,0,0,0-2.07.77l-84,0a.58.58,0,0,0-.63.53c-1.05,6.2-9.09,12.78-14.23,15.29-17.74,8.67-37.51-1.92-41.37-20.89v-9.75c6.48-28.71,42.86-32.86,55.53-6.13a1.65,1.65,0,0,0,1.49.94h83.4l0,0a1.74,1.74,0,0,1,.1-.23c1.6,1.05,2.94.48,4.42.54a282.35,282.35,0,0,0,30.79-.33c13.58,0,27.16-.06,40.74.28,3.92.1,11.83.45,15.24-1.49q20.76-11.83,40.83-23.5a.65.65,0,0,0-.32-1.22q-34.33-.06-67.9,0a17.59,17.59,0,0,0-4.05.73,2.33,2.33,0,0,0-.08-1,.56.56,0,0,0-.59-.44l-18,.24a.58.58,0,0,0-.56.36q-12.34,25.55-40.58,16.28-13.74-8-15.18-22.42c-3-30.62,34-43.88,52.41-20.22.27,1.17,2,6.82,4.5,6.85q35.29.33,52.06,0a5.94,5.94,0,0,0,2.59-.88,19.46,19.46,0,0,0,2.48.5q32.94-.23,65.87.25a19,19,0,0,0,8.66-2.5q14.55-9,29.52-17.22c5.41-3,9.5-3.74,14.76-.77l35.5,20s.81.35,2.32,1c1.26.52,2.06,1.73,3.15,2.37q40.69,23.71,81.58,47.12a106,106,0,0,1,9.13,5.92c1.27.91,1.13,1.48-.41,1.71a34.51,34.51,0,0,1-5.69.46q-26.74-.42-57,.31a25.26,25.26,0,0,1-13.54-3.53q-25.06-14.52-50.16-29c-5.22-3-10.58-7-17.26-3.18q-42.43,24.08-84.59,48.68c-5.76,3.35-12.66,6.23-12.67,14.1q-.08,52,0,103.94a11.19,11.19,0,0,0,4.62,9.38,134,134,0,0,0,12.78,8q36.76,21.11,73.62,42.1c8.25,4.7,12.32,6.86,21.24,1.67q25.16-14.62,50.49-29c8.89-5,22.78-2.13,32.26-2.21q17.86-.15,35.7-.05a73.2,73.2,0,0,1,8.6.52.62.62,0,0,1,.24,1.15q-64.09,36.9-127.88,73.67c-6.17,3.56-9.76,4.46-15.86.92q-29.53-17.14-37.37-21.38a22.13,22.13,0,0,0-10.74-2.27q-33.08.24-66.18.23Z" transform="translate(373.04 -852.9)"/><path class="cls-2" d="M-172.75,979.65q-5.59,3.08-11.15,6.22c-9.36,5.3-15.39,7.79-13.39,19a282.35,282.35,0,0,1-30.79.33c-1.48-.06-2.82.51-4.42-.54l0-9.57q28.23,9.25,40.58-16.28a.58.58,0,0,1,.56-.36l18-.24a.56.56,0,0,1,.59.44,2.33,2.33,0,0,1,.08,1Z" transform="translate(373.04 -852.9)"/><path class="cls-2" d="M-197.25,1025v30.42l-.3.48a.58.58,0,0,1-.52.29l-18.26,0a.92.92,0,0,1-.83-.53c-3.94-8.56-7.93-11.74-15.63-16.83a77,77,0,0,0,0-13.92,4.25,4.25,0,0,1,2.07-.77q16.77-.35,33.47.81Z" transform="translate(373.04 -852.9)"/><path class="cls-2" d="M104,1061v95.45a.49.49,0,0,1-.49.49h-46a.5.5,0,0,1-.5-.5v-129a.5.5,0,0,1,.5-.5l122.66,0c11.43,0,15.64,3,15.62,14.42,0,12.6,2.07,26.71-5.64,37.65q-8.43,11.94-17.18,23.64a1.14,1.14,0,0,0-.22.93,13,13,0,0,0,1.44,4.12q13.37,24.25,26.36,48.42a.54.54,0,0,1-.47.79l-48.09,0a1,1,0,0,1-.93-.51q-15.7-24.95-31.14-49.93c-2.63-4.27-.44-6.14,2.61-9.72a346.14,346.14,0,0,0,24.35-32.09c1-1.44,1.31-4.1-1.1-4.18q-20.5-.7-41.31,0a.48.48,0,0,0-.46.48Z" transform="translate(373.04 -852.9)"/><path class="cls-2" d="M224.23,1156.93a10.32,10.32,0,0,1-10.31-10.31V1039.38a12.37,12.37,0,0,1,12.18-12.55h114a12.37,12.37,0,0,1,12.18,12.55v107.24a10.32,10.32,0,0,1-10.31,10.31H224.23m36.18-39.53c-.32,3.33,1.83,7.41,5.55,7.49q8,.16,32.82.15c7.49,0,6.18-7.42,6.18-12.29q0-25.35,0-49.75a2.35,2.35,0,0,0-2.06-2.34,63,63,0,0,0-9.68-.52q-11.83.33-23.68,0a33.48,33.48,0,0,0-7.18.54,2,2,0,0,0-1.62,2q0,26,0,51.57c0,.07-.1,1.12-.3,3.17Z" transform="translate(373.04 -852.9)"/><path class="cls-2" d="M481.3,1113.86c.77-.44.41-78.18.41-85.47a1.32,1.32,0,0,1,1.49-1.49h44a1.54,1.54,0,0,1,1.75,1.75v127.69a.58.58,0,0,1-.57.57q-35.47,0-70.93-.07a16,16,0,0,1-3.53-.41,1.46,1.46,0,0,1-.82-.53,29.93,29.93,0,0,1-4.34-7.06Q435,1114,421.28,1079.16q-1.93-4.9-3.64-9.82a.35.35,0,0,0-.39-.23.34.34,0,0,0-.29.34v87a.5.5,0,0,1-.5.5H370.71a.76.76,0,0,1-.75-.75V1028.63a1.51,1.51,0,0,1,1.7-1.7q35.32-.08,70.49,0c6.21,0,10.11,5.52,11.81,10.31l26.52,74.7a5.83,5.83,0,0,1,.26,1.67c0,.41.21.51.56.3Z" transform="translate(373.04 -852.9)"/><path class="cls-2" d="M592.92,1156a.87.87,0,0,1-.87.87H547.57a.87.87,0,0,1-.87-.87V1027.78a.87.87,0,0,1,.87-.87h44.48a.87.87,0,0,1,.87.87V1156Z" transform="translate(373.04 -852.9)"/><path class="cls-2" d="M869.44,1130.87a157,157,0,0,1-15.75,25.68.87.87,0,0,1-.71.35H769.71a.93.93,0,0,1-1-.66q-1.43-3.87.59-8.67,23.6-56.47,47.4-112.87c2.64-6.25,2.88-7.72,10-7.75q38.17-.2,48.42,0c3.5.06,6.91,7.54,7.79,9.77q23.39,59.44,46.75,118.7a1.1,1.1,0,0,1-1,1.5H881.78a1.59,1.59,0,0,1-1.49-1l-9.51-24.94a.73.73,0,0,0-1.34-.06m-20.18-62.07-20.89,54.48c-.41,1.08,0,1.62,1.12,1.62h38.43a.56.56,0,0,0,.53-.75q-9.32-27-18.39-53.93a5.29,5.29,0,0,1-.11-1.38.18.18,0,0,0-.2-.19h-.28a.24.24,0,0,0-.21.15Z" transform="translate(373.04 -852.9)"/><path class="cls-2" d="M619.77,1060.31l-12.31-.23a.46.46,0,0,1-.44-.58,150.63,150.63,0,0,1,12.35-31.24,2.55,2.55,0,0,1,2.25-1.35q59.39,0,118.39,0c9.18,0,14.18,3,14.19,12.52q0,50.05,0,100.12c0,10.67.59,17.34-12.79,17.35q-60,0-120,0a1,1,0,0,1-1-1V1061a.62.62,0,0,0-.69-.71m47.38,1,.31,63a.53.53,0,0,0,.58.58q16.63.17,33.29,0c7.26-.05,6.13-6.85,6.13-11.58v-49.92c0-3.11-2.49-2.79-4.81-2.87q-16.78-.62-34.48-.25a1,1,0,0,0-1,1Z" transform="translate(373.04 -852.9)"/><path class="cls-2" d="M-197.25,1075.15l-.29,31.46-35,.18-.28-14.39a2.33,2.33,0,0,1,.74-.8c7.7-3.72,11.27-8.4,15-16.12a.78.78,0,0,1,.78-.48l19.11.15Z" transform="translate(373.04 -852.9)"/><path class="cls-2" d="M-166,1126.11a296.28,296.28,0,0,1-30.19.42.91.91,0,0,0-1.06,1l-.27,5.1q-20.72,2.37-26.47,20.16c-5.06,15.6,4.42,33,20.91,36.27,2.13.42,4.23.82,6.32,1.21q-2.21,8.36,4.94,12.94a85.55,85.55,0,0,0,17.77,9l-42.23.15a.69.69,0,0,1-.68-.44A34.69,34.69,0,0,0-233,1194.86a4.81,4.81,0,0,0,.56-2.23q0-32.87-.1-65.73a1.09,1.09,0,0,0,.3-.76c0-.36-.18-.52-.54-.49a2.4,2.4,0,0,1-.46,0c-1.29-.14-1.25-.19.14-.14q14.05.43,35.85-.28a302.69,302.69,0,0,1,31.27.89Z" transform="translate(373.04 -852.9)"/><path class="cls-2" d="M-143,1231.44q93.12,53.44,116.75,67.25c7.42,4.33,11,1.88,18.36-2.42q19-11.12,38.13-22c3.33-1.9,7.16-1.45,10.82-1.44q29.34.14,58.9.05a.55.55,0,0,1,.27,1q-56.7,32.6-113.68,65.44a37.69,37.69,0,0,1-3.61,1.55h-3.75a45,45,0,0,1-7.76-3.68q-89.93-51.83-179.94-103.51a11.29,11.29,0,0,1-2.75-2.37l68.26.1Z" transform="translate(373.04 -852.9)"/></svg>